<?xml version="1.0" encoding="utf-8"?>
<svg viewBox="6.432 11.714 358.993 68.173" width="358.993" height="68.173" xmlns="http://www.w3.org/2000/svg">
  <path d="m 42.576447,113.13363 9.6012,-14.681201 h -6.1468 l -9.8044,14.935201 V 98.452429 h -5.2324 v 26.568401 h 5.2324 v -2.1336 l 3.4036,-5.1816 6.4008,7.3152 h 6.9088 z" style="font-style:normal;font-variant:normal;font-weight:bold;font-stretch:normal;font-size:50.79999924px;font-family:Azedo;-inkscape-font-specification:'Azedo, Bold';font-variant-ligatures:normal;font-variant-caps:normal;font-variant-numeric:normal;font-feature-settings:normal;text-align:start;writing-mode:lr-tb;text-anchor:start;stroke-width:0.26458332px;fill:#000000;fill-opacity:1" id="path818" transform="matrix(2.561058, 0, 0, 2.561058, -72.945592, -240.298009)"/>
  <path d="M 73.683509,98.452429 H 68.45111 l -10.668,26.568401 h 5.2324 l 0.8636,-2.1336 c 2.032,1.3716 4.5212,2.1336 7.162799,2.1336 2.6416,0 5.1308,-0.762 7.2136,-2.1336 l 0.8636,2.1336 h 5.2324 z m -2.6416,21.691601 c -2.032,0 -3.860799,-0.7112 -5.283199,-1.8796 l 5.283199,-13.2588 1.5748,3.9116 3.7592,9.3472 c -1.4224,1.1684 -3.302,1.8796 -5.334,1.8796 z" style="font-style: normal; font-variant: normal; font-weight: bold; font-stretch: normal; font-size: 50.8px; font-family: Azedo; font-feature-settings: normal; text-align: start; writing-mode: lr-tb; text-anchor: start; stroke-width: 0.264583px; fill-opacity: 1; fill: rgb(32, 69, 208);" id="path820" transform="matrix(2.561058, 0, 0, 2.561058, -72.945592, -240.298009)"/>
  <path d="M 92.681914,119.78843 V 98.452429 h -5.2324 v 21.336001 5.2324 h 5.2324 12.801596 v -5.2324 z" style="font-style:normal;font-variant:normal;font-weight:bold;font-stretch:normal;font-size:50.79999924px;font-family:Azedo;-inkscape-font-specification:'Azedo, Bold';font-variant-ligatures:normal;font-variant-caps:normal;font-variant-numeric:normal;font-feature-settings:normal;text-align:start;writing-mode:lr-tb;text-anchor:start;stroke-width:0.26458332px" id="path822" transform="matrix(2.561058, 0, 0, 2.561058, -72.945592, -240.298009)"/>
  <path d="M 115.20457,125.02083 V 98.452429 h -5.2324 v 26.568401 z" style="font-style:normal;font-variant:normal;font-weight:bold;font-stretch:normal;font-size:50.79999924px;font-family:Azedo;-inkscape-font-specification:'Azedo, Bold';font-variant-ligatures:normal;font-variant-caps:normal;font-variant-numeric:normal;font-feature-settings:normal;text-align:start;writing-mode:lr-tb;text-anchor:start;stroke-width:0.26458332px" id="path824" transform="matrix(2.561058, 0, 0, 2.561058, -72.945592, -240.298009)"/>
  <path d="m 136.13259,98.401629 -5.6388,8.585201 -5.6896,-8.585201 h -6.2484 l 8.7884,13.360401 -8.7376,13.2588 h 6.2484 l 5.6388,-8.5344 5.588,8.5344 h 6.2484 l -8.7376,-13.2588 8.7884,-13.360401 z" style="font-style: normal; font-variant: normal; font-weight: bold; font-stretch: normal; font-size: 50.8px; font-family: Azedo; font-feature-settings: normal; text-align: start; writing-mode: lr-tb; text-anchor: start; stroke-width: 0.264583px; fill-opacity: 1; fill: rgb(32, 69, 208);" id="path826" transform="matrix(2.561058, 0, 0, 2.561058, -72.945592, -240.298009)"/>
  <path d="m 157.90912,98.401629 c -7.366,0 -13.3096,5.943601 -13.3096,13.309601 0,7.3152 5.9436,13.3096 13.3096,13.3096 7.3152,0 13.2588,-5.9944 13.2588,-13.3096 0,-7.366 -5.9436,-13.309601 -13.2588,-13.309601 z m 0,21.793201 c -4.7244,0 -8.5344,-3.81 -8.5344,-8.4836 0,-4.7244 3.81,-8.4836 8.5344,-8.4836 4.6736,0 8.4836,3.7592 8.4836,8.4836 0,4.6736 -3.81,8.4836 -8.4836,8.4836 z" style="font-style:normal;font-variant:normal;font-weight:bold;font-stretch:normal;font-size:50.79999924px;font-family:Azedo;-inkscape-font-specification:'Azedo, Bold';font-variant-ligatures:normal;font-variant-caps:normal;font-variant-numeric:normal;font-feature-settings:normal;text-align:start;writing-mode:lr-tb;text-anchor:start;stroke-width:0.26458332px;fill:#676767;fill-opacity:1" id="path828" transform="matrix(2.561058, 0, 0, 2.561058, -72.945592, -240.298009)"/>
</svg>